<?xml version="1.0" encoding="UTF-8" standalone="no"?>
<!DOCTYPE svg PUBLIC "-//W3C//DTD SVG 1.1//EN" "http://www.w3.org/Graphics/SVG/1.1/DTD/svg11.dtd">
<svg width="100%" height="100%" viewBox="0 0 64 64" version="1.1" xmlns="http://www.w3.org/2000/svg" xmlns:xlink="http://www.w3.org/1999/xlink" xml:space="preserve" xmlns:serif="http://www.serif.com/" style="fill-rule:evenodd;clip-rule:evenodd;stroke-linecap:round;stroke-linejoin:round;stroke-miterlimit:1.5;">
    <g id="Logo-12-avec-rectangle-arrondi-dégradé-bleu-orange--Redimensionné" serif:id="Logo 12 avec rectangle arrondi dégradé bleu orange  Redimensionné" transform="matrix(1.07602,0,0,1.07602,-387.458,-40.0954)">
        <g transform="matrix(1.35177,0,0,1.35174,-108.898,-34.6213)">
            <path d="M390.074,64.603C390.074,58.771 385.339,54.036 379.507,54.036L358.372,54.036C352.54,54.036 347.805,58.771 347.805,64.603L347.805,85.738C347.805,91.57 352.54,96.305 358.372,96.305L379.507,96.305C385.339,96.305 390.074,91.57 390.074,85.738L390.074,64.603Z" style="fill:rgb(247,247,247);fill-opacity:0;stroke:url(#_Linear1);stroke-width:1.72px;"/>
        </g>
        <g id="Essai-Deux-Livres-Logo" serif:id="Essai Deux Livres Logo" transform="matrix(1,0,0,1,95.5493,12.6939)">
            <g id="Main-et-livre-ORANGE" serif:id="Main et livre ORANGE" transform="matrix(-0.995227,0,0,1,610.918,46.8867)">
                <g id="Essai-6-Assemblage-traits-livres" serif:id="Essai 6 Assemblage traits livres" transform="matrix(1,0,0,1,-111.602,-11.5894)">
                    <path id="COTE-IMPORTANTE" serif:id="COTE IMPORTANTE" d="M417.29,39.877L420.316,42.226L420.776,21.19L417.945,19.282L417.29,39.877Z" style="fill:rgb(205,65,9);stroke:black;stroke-width:0.19px;"/>
                    <path id="iMPORTANTE-LIGNE-TRAIT-COTÉ-A-SIMPLIFIER-" serif:id="iMPORTANTE LIGNE TRAIT COTÉ A SIMPLIFIER " d="M420.579,20.78L421.36,21.291L420.579,20.78L421.36,21.291L421.044,42.776L420.347,42.248L420.579,20.78L421.36,21.291L420.579,20.78Z" style="stroke:black;stroke-width:0.19px;"/>
                    <path id="IMPORTANTE-FOND-NOIR-HAUTEUR-LIVRE" serif:id="IMPORTANTE FOND NOIR HAUTEUR LIVRE" d="M417.914,19.283L420.844,21.175L436.016,20.964L432.92,19.312L417.914,19.283Z" style="stroke:black;stroke-width:0.19px;"/>
                    <path id="IMPORTANTE-FOND-NOIR-COTE-DROIT-LIVRE" serif:id="IMPORTANTE FOND NOIR COTE DROIT LIVRE" d="M417.315,39.884L417.862,19.197L432.733,19.262L436.01,20.963L436.03,41.653L421.03,42.808L421.119,41.501L420.969,41.511L421.11,41.628L420.969,41.511L436.029,40.501L420.969,41.511L417.342,38.855L417.315,39.884L421.03,42.808L436.03,41.653L436.01,20.963L420.803,21.109L420.535,35.728L420.438,41.122L420.969,41.511L421.35,21.109L420.803,21.109L417.862,19.197L417.315,39.884Z" style="stroke:black;stroke-width:0.19px;"/>
                    <g id="Fond-noir-hauteur-livre" serif:id="Fond noir hauteur livre" transform="matrix(1,0,0,1,1.40859,0.375623)">
                        <path d="M431.339,18.821L434.621,20.64L419.671,20.827L416.48,18.826L431.339,18.821Z" style="stroke:black;stroke-width:0.09px;"/>
                    </g>
                    <g id="Ajout-couleur-de-fond-de-la-couverture-du-Livre-" serif:id="Ajout couleur de fond de la couverture du Livre " transform="matrix(1,0,0,1,1.40859,0.375623)">
                        <path d="M419.868,20.806L419.695,41.222L434.594,40.111L434.539,20.554L419.868,20.806Z" style="fill:rgb(205,65,9);stroke:black;stroke-width:0.09px;"/>
                    </g>
                    <g id="FOND-NOIR-BAS-LIVRE-DEVANT" serif:id="FOND NOIR BAS LIVRE DEVANT" transform="matrix(1,0,0,1,1.40859,0.375623)">
                        <path d="M434.586,40.082L434.54,41.279L419.63,42.435L419.668,41.237L434.586,40.082Z" style="stroke:black;stroke-width:0.09px;"/>
                    </g>
                </g>
                <g id="MAIN-VERTE-DROITE-AVEC-DOIGT" serif:id="MAIN VERTE DROITE AVEC DOIGT" transform="matrix(1,0,0,1,0.810266,-19.8055)">
                    <path d="M294.196,37.005L299.063,37.08L299.97,36.783L300.541,36.294L301.03,36.009L301.519,35.52L302.207,34.967L303.014,34.374L303.894,33.852L304.416,33.493L305.323,32.767L305.324,34.712L305.324,35.194L305.606,35.672L305.324,35.194L305.606,35.672L305.886,35.963L306.183,36.067L306.513,36.149L307.014,36.203L311.854,36.012L312.409,36.231L312.579,36.445L312.621,36.989L312.598,37.637L312.146,37.904L311.448,38.044L310.76,38.131L312.318,38.148L312.984,38.202L313.483,38.118L313.976,38.164L314.234,38.575L314.38,39.106L314.325,39.613L314.058,39.987L313.446,40.013L312.874,40.021L312.308,39.977L311.813,39.952L312.308,39.977C311.845,40.047 311.763,39.927 311.813,39.952L312.827,40.343L313.018,40.494L313.124,40.788L313.155,41.155L313.024,41.543L312.688,41.77L311.292,41.924L310.571,41.964L309.838,41.972L308.764,42.006L310.031,41.97L310.568,42.139L310.8,42.322L310.998,42.474L311.252,42.808L311.277,43.141L311.203,43.457L310.998,43.796L310.494,43.944L309.474,43.97L308.559,43.956L306.787,43.995L304.955,43.951L303.992,43.907L303.019,43.78L301.911,43.54L301.011,43.187L299.743,42.329L299.051,42.021C298.93,42.006 298.615,41.926 298.387,41.911L295.135,42.128L294.137,42.117L293.541,42.143L292.924,42.126L292.01,42.108L289.984,42.016L289.884,39.207L289.942,36.529L289.884,39.207L289.942,36.529L290.513,36.624L289.942,36.529L291.801,36.836L290.513,36.624L291.801,36.836L292.446,36.923L294.196,37.005Z" style="fill:rgb(24,97,53);stroke:black;stroke-width:0.41px;"/>
                </g>
            </g>
            <g id="Main-et-livre-BLEU" serif:id="Main et livre BLEU" transform="matrix(0.995275,0,0,1,-22.3839,22.856)">
                <g id="Essai-6-Assemblage-traits-livres1" serif:id="Essai 6 Assemblage traits livres" transform="matrix(1,0,0,1,-111.602,-11.5894)">
                    <path id="COTE-IMPORTANTE1" serif:id="COTE IMPORTANTE" d="M417.29,39.877L420.316,42.226L420.776,21.19L417.945,19.282L417.29,39.877Z" style="fill:rgb(8,84,162);stroke:black;stroke-width:0.19px;"/>
                    <g id="IMPORTANTE-COTE-BAS-DU-LIVRE" serif:id="IMPORTANTE COTE BAS DU LIVRE" transform="matrix(1,0,0,1,1.40859,0.375623)">
                        <path d="M419.128,40.829L419.298,20.605L419.952,20.887L419.844,35.266L419.196,35.249L418.776,35.252L416.075,35.202L416.434,18.889L419.25,20.582L419.254,27.313L416.075,35.202L416.002,38.821L419.128,40.829L419.686,41.203L419.844,35.266L419.686,41.203L419.63,42.382L415.997,39.469L416.002,38.821" style="fill:rgb(8,84,162);stroke:black;stroke-width:0.19px;"/>
                    </g>
                    <path id="iMPORTANTE-LIGNE-TRAIT-COTÉ-A-SIMPLIFIER-1" serif:id="iMPORTANTE LIGNE TRAIT COTÉ A SIMPLIFIER " d="M420.579,20.78L421.36,21.291L420.579,20.78L421.36,21.291L421.044,42.776L420.347,42.248L420.579,20.78L421.36,21.291L420.579,20.78Z" style="stroke:black;stroke-width:0.19px;"/>
                    <path id="IMPORTANTE-FOND-NOIR-HAUTEUR-LIVRE1" serif:id="IMPORTANTE FOND NOIR HAUTEUR LIVRE" d="M417.914,19.283L420.844,21.175L436.016,20.964L432.92,19.312L417.914,19.283Z" style="stroke:black;stroke-width:0.19px;"/>
                    <path id="IMPORTANTE-FOND-NOIR-COTE-DROIT-LIVRE1" serif:id="IMPORTANTE FOND NOIR COTE DROIT LIVRE" d="M417.315,39.884L417.862,19.197L432.733,19.262L436.01,20.963L436.03,41.653L421.03,42.808L421.119,41.501L420.969,41.511L421.11,41.628L420.969,41.511L436.029,40.501L420.969,41.511L417.342,38.855L417.315,39.884L421.03,42.808L436.03,41.653L436.01,20.963L420.803,21.109L420.535,35.728L420.438,41.122L420.969,41.511L421.35,21.109L420.803,21.109L417.862,19.197L417.315,39.884Z" style="stroke:black;stroke-width:0.19px;"/>
                    <g id="Fond-noir-hauteur-livre1" serif:id="Fond noir hauteur livre" transform="matrix(1,0,0,1,1.40859,0.375623)">
                        <path d="M431.339,18.821L434.621,20.64L419.671,20.827L416.48,18.826L431.339,18.821Z" style="stroke:black;stroke-width:0.09px;"/>
                    </g>
                    <g id="Ajout-couleur-de-fond-de-la-couverture-du-Livre-1" serif:id="Ajout couleur de fond de la couverture du Livre " transform="matrix(1,0,0,1,1.40859,0.375623)">
                        <path d="M419.868,20.806L419.695,41.222L434.594,40.111L434.539,20.554L419.868,20.806Z" style="fill:rgb(8,84,162);stroke:black;stroke-width:0.09px;"/>
                    </g>
                    <g id="FOND-NOIR-BAS-LIVRE-DEVANT1" serif:id="FOND NOIR BAS LIVRE DEVANT" transform="matrix(1,0,0,1,1.40859,0.375623)">
                        <path d="M434.586,40.082L434.54,41.279L419.63,42.435L419.668,41.237L434.586,40.082Z" style="stroke:black;stroke-width:0.09px;"/>
                    </g>
                </g>
                <g id="MAIN-VERTE-GAUCHE-AVEC-DOIGT" serif:id="MAIN VERTE GAUCHE AVEC DOIGT" transform="matrix(1,0,0,1,0.810266,-19.8055)">
                    <path d="M294.196,37.005L299.063,37.08L299.97,36.783L300.541,36.294L301.03,36.009L301.519,35.52L302.207,34.967L303.014,34.374L303.894,33.852L304.416,33.493L305.297,32.799L305.195,34.839L305.237,35.248L305.49,35.694L305.237,35.248L305.49,35.694L305.886,35.963L306.183,36.067L306.513,36.149L307.014,36.203L311.854,36.012L312.409,36.231L312.579,36.445L312.621,36.989L312.598,37.637L312.146,37.904L311.448,38.044L310.76,38.131L312.318,38.148L312.984,38.202L313.483,38.118L313.976,38.164L314.234,38.575L314.38,39.106L314.325,39.613L314.058,39.987L313.446,40.013L312.874,40.021L312.308,39.977L311.813,39.952L312.308,39.977C311.845,40.047 311.763,39.927 311.813,39.952L312.827,40.343L313.018,40.494L313.124,40.788L313.155,41.155L313.024,41.543L312.688,41.77L311.292,41.924L310.571,41.964L309.838,41.972L308.764,42.006L310.031,41.97L310.568,42.139L310.8,42.322L310.998,42.474L311.252,42.808L311.277,43.141L311.203,43.457L310.998,43.796L310.494,43.944L309.474,43.97L308.559,43.956L306.787,43.995L304.955,43.951L303.992,43.907L303.019,43.78L301.911,43.54L301.011,43.187L299.743,42.329L299.051,42.021C298.93,42.006 298.615,41.926 298.387,41.911L295.135,42.128L294.137,42.117L293.541,42.143L292.924,42.126L292.01,42.108L291.156,42.043L290.415,42.007L289.996,42.006L289.963,36.528L290.513,36.576L290.856,36.659L291.412,36.799L291.138,36.761L291.801,36.836L292.446,36.923L294.196,37.005Z" style="fill:rgb(24,97,53);stroke:black;stroke-width:0.41px;"/>
                </g>
            </g>
        </g>
    </g>
    <defs>
        <linearGradient id="_Linear1" x1="0" y1="0" x2="1" y2="0" gradientUnits="userSpaceOnUse" gradientTransform="matrix(42.2689,0,0,42.2689,347.805,75.1707)"><stop offset="0" style="stop-color:rgb(8,84,162);stop-opacity:1"/><stop offset="1" style="stop-color:rgb(205,65,9);stop-opacity:1"/></linearGradient>
    </defs>
</svg>
