<svg width="16" height="16" viewBox="0 0 4.233 4.233" xmlns="http://www.w3.org/2000/svg"><path d="M3.931 2.473l-.001-.847.08-.002.059.057v.792z" fill="none" stroke="#000" stroke-width=".03675432"/><path d="M4.05 2.072v-.383l-.024-.023-.024-.022h-.026a.69.69 0 00-.027 0v.406l.001.405h.1z" paint-order="markers fill stroke"/><path d="M4.017 2.473h-.57s-.131.001-.131-.076v-.676s-.015-.097.167-.097h.527s.06.001.06.061l-.004.72s.004.068-.04.068h-.009" fill="none" stroke="#000" stroke-width=".03981718"/><path d="M4.106 1.866s.001-.044-.004-.093c-.005-.052-.009-.114-.069-.146a.205.205 0 00-.108-.026l-.479-.004s-.167-.006-.214.052c-.029.035-.017.306-.02.415-.005.229.006.512.006.512s.004.05.113.06a.37.37 0 00.019 0c.041.002.222-.003.313-.002h.341s.09.024.09-.136.012-.632.012-.632z" fill="none" stroke="#000" stroke-width=".032160030000000006"/><path d="M3.931 2.473l-.001-.847.08-.002.059.057v.792z" fill="none" stroke="#000" stroke-width=".03675432"/><path d="M4.05 2.072v-.383l-.024-.023-.024-.022h-.026a.69.69 0 00-.027 0v.406l.001.405h.1z" paint-order="markers fill stroke"/><path d="M4.017 2.473h-.57s-.131.001-.131-.076v-.676s-.015-.097.167-.097h.527s.06.001.06.061l-.004.72s.004.068-.04.068h-.009" fill="none" stroke="#000" stroke-width=".03981718"/><path d="M3.41 1.6h0s-.192-.013-.192.15v.826c.006.026.051.05.051.05.382.011.314.007.769.007H3.46s-.242.017-.242-.054v-.823s0-.043.01-.077c.023-.075.182-.078.182-.078z" fill="none" stroke="#000" stroke-width=".01990859"/><path d="M4.055 2.574c.004-.001.004-.001 0-.001v.001z" fill="none" paint-order="markers fill stroke"/><path d="M4.028 2.65a.092.092 0 00.021-.007c.035-.016.055-.056.06-.116l.003-.16c.001-.14.002-.19.007-.396a1.637 1.637 0 00-.002-.202.31.31 0 00-.018-.09.29.29 0 00-.026-.046.098.098 0 00-.04-.025.256.256 0 00-.122-.022 22.295 22.295 0 00-.529-.003c-.081.007-.133.024-.159.052-.013.015-.018.036-.023.096a13.163 13.163 0 00.002.807c.001.047.002.052.013.066.016.022.048.037.09.044a.61.61 0 00.098.003 86.56 86.56 0 01.625-.001zm-.003-.984a.206.206 0 01-.02-.021.34.34 0 01.023.022l.022.02v.2l-.001-.1V1.69z" fill="none" paint-order="markers fill stroke"/><path d="M4.017 2.473s.082.079.006.16M4.054 2.444s.082.08.006.16M4.1 1.959v-.165" fill="none" stroke="#000" stroke-width=".03981718"/><path d="M3.95 2.455V1.63H4l.077.077v.743h-.128" fill="none" stroke="#000" stroke-width=".03981718"/><path d="M4.032 2.557h0-.68s-.138-.026-.138-.111" fill="none" stroke="#000" stroke-width=".03981718" stroke-linecap="round" stroke-linejoin="round" paint-order="markers fill stroke"/><path d="M4.088 2.546l-.02-.073.023.039z" fill="none" stroke="#000" stroke-width=".03981718"/><g><path d="M.301 2.467l.001-.847-.08-.002-.058.057v.792z" fill="none" stroke="#000" stroke-width=".03675432"/><path d="M.183 2.066v-.383l.023-.023.024-.022h.027a.69.69 0 01.026 0v.811h-.1z" paint-order="markers fill stroke"/><path d="M.215 2.467h.57s.131.001.131-.076v-.676s.016-.097-.167-.097H.222s-.06.001-.06.061l.004.72s-.004.068.04.068h.01" fill="none" stroke="#000" stroke-width=".03981718"/><path d="M.127 1.86s-.002-.044.003-.093c.006-.052.009-.114.069-.146a.205.205 0 01.108-.026l.479-.004s.168-.006.215.052c.028.035.017.306.019.415.005.229-.006.512-.006.512s-.004.05-.112.06a.37.37 0 01-.02 0c-.04.002-.222-.003-.312-.002H.228s-.09.024-.09-.136S.127 1.86.127 1.86z" fill="none" stroke="#000" stroke-width=".032160030000000006"/><path d="M.301 2.467l.001-.847-.08-.002-.058.057v.792z" fill="none" stroke="#000" stroke-width=".03675432"/><path d="M.183 2.066v-.383l.023-.023.024-.022h.027a.69.69 0 01.026 0v.811h-.1z" paint-order="markers fill stroke"/><path d="M.215 2.467h.57s.131.001.131-.076v-.676s.016-.097-.167-.097H.222s-.06.001-.06.061l.004.72s-.004.068.04.068h.01" fill="none" stroke="#000" stroke-width=".03981718"/><path d="M.823 1.595h0s.191-.015.191.148v.827c-.006.026-.05.05-.05.05-.383.011-.315.007-.77.007h.578s.242.017.242-.054V1.75s0-.043-.01-.077c-.023-.076-.181-.078-.181-.078z" fill="none" stroke="#000" stroke-width=".01990859"/><path d="M.177 2.568c-.003-.001-.003-.001 0-.001v.001z" fill="none" paint-order="markers fill stroke"/><path d="M.204 2.644a.092.092 0 01-.021-.007c-.035-.016-.055-.056-.06-.116l-.002-.16-.008-.396a1.637 1.637 0 01.002-.203.31.31 0 01.018-.09.29.29 0 01.027-.045.098.098 0 01.04-.025.256.256 0 01.122-.022c.105-.002.505-.005.528-.003.081.007.134.024.159.052.013.015.018.036.023.096a13.163 13.163 0 01-.002.807c0 .047-.002.052-.013.066-.016.021-.048.037-.09.044a.61.61 0 01-.098.003 86.56 86.56 0 00-.625-.001zm.003-.984a.206.206 0 00.021-.021.34.34 0 00-.024.022l-.022.02v.1l.001.1v-.198z" fill="none" paint-order="markers fill stroke"/><path d="M.215 2.467s-.082.079-.006.16M.178 2.438s-.082.08-.006.16M.132 1.952v-.164" fill="none" stroke="#000" stroke-width=".03981718"/><path d="M.282 2.449v-.824H.234l-.078.077v.743h.128" fill="none" stroke="#000" stroke-width=".03981718"/><path d="M.2 2.55h.68s.138-.025.138-.11" fill="none" stroke="#000" stroke-width=".03981718" stroke-linecap="round" stroke-linejoin="round" paint-order="markers fill stroke"/><path d="M.144 2.54l.02-.073-.023.039z" fill="none" stroke="#000" stroke-width=".03981718"/></g><g><path d="M3.22 1.32l.484.189.482-.189h-.965"/><path d="M3.439.925V.53h.53v.792h-.53zM.264.925V.53h.53v.792h-.53z" paint-order="markers fill stroke"/><path d="M3.969.73H.264" fill="none" stroke="#000" stroke-width=".413"/></g><g><path d="M1.012 2.913l-.483-.189-.483.189h.966"/><path d="M.794 3.308v.396h-.53v-.792h.53zM3.969 3.308v.396h-.53v-.792h.53z" paint-order="markers fill stroke"/><path d="M.264 3.504h3.705" fill="none" stroke="#000" stroke-width=".413"/></g><path d="M-.006 4.241L4.234.006" fill="none"/></svg>