<svg width="32" height="32" viewBox="0 0 8.467 8.467" xmlns="http://www.w3.org/2000/svg"><path d="M.144 4.1L4.097.14z" fill="none" stroke="#000" stroke-width=".388" transform="matrix(1.99823 0 0 1.99775 .006 -.006)"/><path d="M4.098 4.105l-2.65-2.657L.144.14z" fill="none" stroke="#000" stroke-width=".388" stroke-linejoin="bevel" transform="matrix(1.99823 0 0 1.99775 .006 -.006)"/><path d="M-.271 2.816v-.553l-.052-.001-.038.037v.517z" fill="none" stroke="#000" stroke-width=".024" transform="matrix(-3.06014 0 0 3.05941 7.031 -3.681)"/><path d="M8.098 4.133v-.765l-.047-.045-.048-.045H7.95c-.029 0-.053.001-.053.002l.001.809.002.809h.198z" paint-order="markers fill stroke"/><path d="M-.327 2.816h.372s.085 0 .085-.05v-.441s.01-.063-.109-.063h-.344s-.04 0-.04.04l.004.47s-.003.044.025.044h.007" fill="none" stroke="#000" stroke-width=".026" transform="matrix(-3.06014 0 0 3.05941 7.031 -3.681)"/><path d="M-.385 2.42s-.001-.029.002-.061c.004-.034.006-.074.045-.095a.134.134 0 01.07-.017l.313-.003s.11-.004.14.034c.019.023.011.2.013.27.003.15-.004.335-.004.335s-.002.034-.073.04a.242.242 0 01-.013 0l-.204-.002h-.223s-.06.016-.06-.089c0-.104-.006-.413-.006-.413z" fill="none" stroke="#000" stroke-width=".021" transform="matrix(-3.06014 0 0 3.05941 7.031 -3.681)"/><path d="M-.271 2.816v-.553l-.052-.001-.038.037v.517z" fill="none" stroke="#000" stroke-width=".024" transform="matrix(-3.06014 0 0 3.05941 7.031 -3.681)"/><path d="M8.098 4.133v-.765l-.047-.045-.048-.045H7.95c-.029 0-.053.001-.053.002l.001.809.002.809h.198z" paint-order="markers fill stroke"/><path d="M-.327 2.816h.372s.085 0 .085-.05v-.441s.01-.063-.109-.063h-.344s-.04 0-.04.04l.004.47s-.003.044.025.044h.007" fill="none" stroke="#000" stroke-width=".026" transform="matrix(-3.06014 0 0 3.05941 7.031 -3.681)"/><path d="M.07 2.247v0s.124-.01.124.097v.54c-.004.017-.033.032-.033.032-.25.007-.205.004-.502.004h.377s.158.012.158-.035v-.537s0-.028-.006-.05c-.015-.05-.119-.051-.119-.051z" fill="none" stroke="#000" stroke-width=".013" transform="matrix(-3.06014 0 0 3.05941 7.031 -3.681)"/><path d="M8.11 5.136c.006-.002.006-.003-.002-.003l.002.003z" fill="none" paint-order="markers fill stroke"/><path d="M8.056 5.288a.184.184 0 00.042-.014c.069-.033.11-.112.118-.23l.006-.32c.004-.28.006-.382.015-.792a3.27 3.27 0 00-.004-.405.621.621 0 00-.036-.18.579.579 0 00-.053-.09.195.195 0 00-.08-.05.511.511 0 00-.244-.044 44.56 44.56 0 00-1.056-.006c-.162.013-.266.047-.317.104-.027.03-.037.071-.047.192-.004.048-.01.914-.007 1.103.002.174.007.399.01.51.004.092.006.102.028.13.032.043.096.074.18.088.03.005.053.006.196.005a173.006 173.006 0 011.249-.001zm-.007-1.966a.413.413 0 01-.041-.043.68.68 0 01.048.045l.043.042-.001.198v.199l-.002-.198v-.198z" fill="none" paint-order="markers fill stroke"/><path d="M-.327 2.816s-.054.052-.005.104M-.352 2.797s-.053.052-.004.105M-.382 2.48v-.107" fill="none" stroke="#000" stroke-width=".026" transform="matrix(-3.06014 0 0 3.05941 7.031 -3.681)"/><path d="M-.284 2.804v-.538h-.031l-.051.05v.486h.084" fill="none" stroke="#000" stroke-width=".026" transform="matrix(-3.06014 0 0 3.05941 7.031 -3.681)"/><path d="M-.337 2.87v0h.444s.09-.016.09-.072" fill="none" stroke="#000" stroke-width=".026" stroke-linecap="round" stroke-linejoin="round" paint-order="markers fill stroke" transform="matrix(-3.06014 0 0 3.05941 7.031 -3.681)"/><path d="M-.374 2.864l.013-.048-.015.025z" fill="none" stroke="#000" stroke-width=".026" transform="matrix(-3.06014 0 0 3.05941 7.031 -3.681)"/><g><path d="M-.271 2.816v-.553l-.052-.001-.038.037v.517z" fill="none" stroke="#000" stroke-width=".024" transform="matrix(3.06014 0 0 3.05941 1.438 -3.693)"/><path d="M.371 4.12v-.764L.42 3.31l.047-.046.053.001c.03 0 .053.001.054.002l-.002.809-.001.809H.37z" paint-order="markers fill stroke"/><path d="M-.327 2.816h.372s.085 0 .085-.05v-.441s.01-.063-.109-.063h-.344s-.04 0-.04.04l.004.47s-.003.044.025.044h.007" fill="none" stroke="#000" stroke-width=".026" transform="matrix(3.06014 0 0 3.05941 1.438 -3.693)"/><path d="M-.385 2.42s-.001-.029.002-.061c.004-.034.006-.074.045-.095a.134.134 0 01.07-.017l.313-.003s.11-.004.14.034c.019.023.011.2.013.27.003.15-.004.335-.004.335s-.002.034-.073.04a.242.242 0 01-.013 0l-.204-.002h-.223s-.06.016-.06-.089c0-.104-.006-.413-.006-.413z" fill="none" stroke="#000" stroke-width=".021" transform="matrix(3.06014 0 0 3.05941 1.438 -3.693)"/><path d="M-.271 2.816v-.553l-.052-.001-.038.037v.517z" fill="none" stroke="#000" stroke-width=".024" transform="matrix(3.06014 0 0 3.05941 1.438 -3.693)"/><path d="M.371 4.12v-.764L.42 3.31l.047-.046.053.001c.03 0 .053.001.054.002l-.002.809-.001.809H.37z" paint-order="markers fill stroke"/><path d="M-.327 2.816h.372s.085 0 .085-.05v-.441s.01-.063-.109-.063h-.344s-.04 0-.04.04l.004.47s-.003.044.025.044h.007" fill="none" stroke="#000" stroke-width=".026" transform="matrix(3.06014 0 0 3.05941 1.438 -3.693)"/><path d="M.07 2.247v0s.124-.01.124.097v.54c-.004.017-.033.032-.033.032-.25.007-.205.004-.502.004h.377s.158.012.158-.035v-.537s0-.028-.006-.05c-.015-.05-.119-.051-.119-.051z" fill="none" stroke="#000" stroke-width=".013" transform="matrix(3.06014 0 0 3.05941 1.438 -3.693)"/><path d="M.36 5.124c-.007-.002-.007-.003.001-.003l-.001.003z" fill="none" paint-order="markers fill stroke"/><path d="M.413 5.276a.184.184 0 01-.042-.014c-.068-.033-.11-.113-.117-.23a12.958 12.958 0 01-.007-.32C.244 4.432.242 4.33.233 3.92a3.27 3.27 0 01.003-.405.621.621 0 01.036-.18.579.579 0 01.053-.09.195.195 0 01.08-.05l.053-.02a.511.511 0 01.19-.024c.21-.005 1.011-.01 1.057-.006.162.013.266.047.317.104.027.03.037.071.047.192a26.29 26.29 0 01-.003 1.613c-.004.092-.005.102-.028.13-.032.043-.095.074-.18.088a1.22 1.22 0 01-.195.005 173.006 173.006 0 00-1.25-.001zM.42 3.31a.413.413 0 00.042-.043.68.68 0 00-.048.045l-.043.042v.198l.001.198v-.197l.002-.198z" fill="none" paint-order="markers fill stroke"/><path d="M-.327 2.816s-.054.052-.005.104M-.352 2.797s-.053.052-.004.105M-.382 2.48v-.107" fill="none" stroke="#000" stroke-width=".026" transform="matrix(3.06014 0 0 3.05941 1.438 -3.693)"/><path d="M-.284 2.804v-.538h-.031l-.051.05v.486h.084" fill="none" stroke="#000" stroke-width=".026" transform="matrix(3.06014 0 0 3.05941 1.438 -3.693)"/><path d="M-.337 2.87v0h.444s.09-.016.09-.072" fill="none" stroke="#000" stroke-width=".026" stroke-linecap="round" stroke-linejoin="round" paint-order="markers fill stroke" transform="matrix(3.06014 0 0 3.05941 1.438 -3.693)"/><path d="M-.374 2.864l.013-.048-.015.025z" fill="none" stroke="#000" stroke-width=".026" transform="matrix(3.06014 0 0 3.05941 1.438 -3.693)"/></g><g><path d="M6.442 2.631l.965.377.965-.377h-1.93"/><path d="M6.877 1.842v-.791h1.06v1.582h-1.06zM.533 1.842v-.791h1.06v1.582H.532z" paint-order="markers fill stroke"/><path d="M3.97 1.062H.263" fill="none" stroke="#000" stroke-width=".413" transform="matrix(1.99823 0 0 1.99775 .005 -.672)"/></g><g><path d="M2.028 5.813l-.966-.377-.964.377h1.93"/><path d="M1.592 6.603v.79H.532V5.812h1.06zM7.937 6.603v.79h-1.06V5.812h1.06z" paint-order="markers fill stroke"/><path d="M3.97 1.062H.263" fill="none" stroke="#000" stroke-width=".413" transform="matrix(-1.99823 0 0 -1.99775 8.464 9.117)"/></g><path d="M-.006 8.467L8.467.007" fill="none"/></svg>