<svg width="32" height="32" viewBox="0 0 8.467 8.467" xmlns="http://www.w3.org/2000/svg"><path d="M-.006 8.467L8.47.007" fill="none"/><g transform="matrix(1.9992 0 0 1.99775 .006 .184)"><rect width="2.636" height="2.968" x=".794" y=".854" ry=".112" paint-order="stroke markers fill"/><rect width=".345" height="2.38" x="1.167" y="1.168" ry=".086" rx=".139" fill="#f9f9f9" paint-order="stroke fill markers"/><rect width=".345" height="2.38" x="1.959" y="1.168" ry=".086" rx=".139" fill="#f9f9f9" paint-order="stroke fill markers"/><rect width=".345" height="2.38" x="2.735" y="1.168" ry=".086" rx=".139" fill="#f9f9f9" paint-order="stroke fill markers"/></g><g transform="matrix(1.9992 0 0 1.99775 .006 -.006)"><rect width="2.646" height=".26" x=".794" y=".523" ry=".129" paint-order="stroke markers fill"/><g fill="none" stroke="#000" stroke-width=".172" stroke-linecap="round"><path d="M1.327.532s-.064-.267.268-.267h.521"/><path d="M2.906.532S2.97.265 2.638.265h-.522"/></g></g></svg>