<svg width="16" height="16" viewBox="0 0 4.233 4.233" xmlns="http://www.w3.org/2000/svg"><path d="M-.006 4.241L4.234.006" fill="none"/><path d="M-.271 2.816v-.553l-.052-.001-.038.037v.517z" fill="none" stroke="#000" stroke-width=".024" transform="matrix(5.44133 0 0 4.67252 2.591 -9.868)"/><path d="M.694 2.065V.897L.778.828.862.76l.095.002c.052 0 .094.001.095.002l-.003 1.236-.002 1.235H.694z" paint-order="markers fill stroke"/><path d="M-.327 2.816h.372s.085 0 .085-.05v-.441s.01-.063-.109-.063h-.344s-.04 0-.04.04l.004.47s-.003.044.025.044h.007" fill="none" stroke="#000" stroke-width=".026" transform="matrix(5.44133 0 0 4.67252 2.591 -9.868)"/><path d="M-.385 2.42s-.001-.029.002-.061c.004-.034.006-.074.045-.095a.134.134 0 01.07-.017l.313-.003s.11-.004.14.034c.019.023.011.2.013.27.003.15-.004.335-.004.335s-.002.034-.073.04a.242.242 0 01-.013 0l-.204-.002h-.223s-.06.016-.06-.089c0-.104-.006-.413-.006-.413z" fill="none" stroke="#000" stroke-width=".021" transform="matrix(5.44133 0 0 4.67252 2.591 -9.868)"/><path d="M-.271 2.816v-.553l-.052-.001-.038.037v.517z" fill="none" stroke="#000" stroke-width=".024" transform="matrix(5.44133 0 0 4.67252 2.591 -9.868)"/><path d="M.694 2.065V.897L.778.828.862.76l.095.002c.052 0 .094.001.095.002l-.003 1.236-.002 1.235H.694z" paint-order="markers fill stroke"/><path d="M-.327 2.816h.372s.085 0 .085-.05v-.441s.01-.063-.109-.063h-.344s-.04 0-.04.04l.004.47s-.003.044.025.044h.007" fill="none" stroke="#000" stroke-width=".026" transform="matrix(5.44133 0 0 4.67252 2.591 -9.868)"/><path d="M.07 2.247v0s.124-.01.124.097v.54c-.004.017-.033.032-.033.032-.25.007-.205.004-.502.004h.377s.158.012.158-.035v-.537s0-.028-.006-.05c-.015-.05-.119-.051-.119-.051z" fill="none" stroke="#000" stroke-width=".013" transform="matrix(5.44133 0 0 4.67252 2.591 -9.868)"/><path d="M.673 3.598c-.012-.004-.011-.004.003-.004l-.003.004z" fill="none" paint-order="markers fill stroke"/><path d="M.769 3.83a.366.366 0 01-.075-.021c-.122-.05-.195-.172-.21-.353a17.002 17.002 0 01-.011-.488 80.1 80.1 0 00-.026-1.21c-.01-.374-.008-.495.006-.618A.835.835 0 01.518.866a.864.864 0 01.094-.14.358.358 0 01.14-.074L.849.62C.928.595.98.59 1.188.585a92.247 92.247 0 011.878-.01c.288.02.473.073.563.159.048.046.066.109.084.293.007.073.018 1.396.013 1.685-.003.266-.012.609-.02.778-.005.142-.009.156-.048.2-.057.065-.17.112-.32.134a2.522 2.522 0 01-.348.008A358.16 358.16 0 00.769 3.83zM.78.827A.683.683 0 00.855.762 1.162 1.162 0 00.769.83L.693.894v.303l.002.303.002-.302.001-.302z" fill="none" paint-order="markers fill stroke"/><path d="M-.327 2.816s-.054.052-.005.104M-.352 2.797s-.053.052-.004.105M-.382 2.48v-.107" fill="none" stroke="#000" stroke-width=".026" transform="matrix(5.44133 0 0 4.67252 2.591 -9.868)"/><path d="M-.284 2.804v-.538h-.031l-.051.05v.486h.084" fill="none" stroke="#000" stroke-width=".026" transform="matrix(5.44133 0 0 4.67252 2.591 -9.868)"/><path d="M-.337 2.87v0h.444s.09-.016.09-.072" fill="none" stroke="#000" stroke-width=".026" stroke-linecap="round" stroke-linejoin="round" paint-order="markers fill stroke" transform="matrix(5.44133 0 0 4.67252 2.591 -9.868)"/><path d="M-.374 2.864l.013-.048-.015.025z" fill="none" stroke="#000" stroke-width=".026" transform="matrix(5.44133 0 0 4.67252 2.591 -9.868)"/><g><g stroke-linecap="round" stroke-linejoin="round"><path d="M2.56 1.183l-.315.874.716-.488z" stroke="#000" stroke-width=".0248502"/><path d="M2.581 1.757l-.12-.125.121-.341.276.27z" fill="#fff" stroke="#fff" stroke-width=".00165668"/></g><g stroke-linecap="round" stroke-linejoin="round"><path d="M3.002 1.529l.93-.904L3.56.264l-.955.881z" stroke="#000" stroke-width=".00994008"/><path d="M2.8 1.068l.722-.65" fill="#fff" stroke="#fff" stroke-width=".059640479999999996"/></g><g fill="none" stroke="#000" stroke-width=".013"><path d="M3.598.209l.176.175.205.205" stroke-width=".021536839999999998"/><path d="M3.559.264s.075-.122.131-.067c.057.055.142.145.142.145M3.832.342l.173.173s.006.053-.07.113" stroke-width=".021536839999999998"/></g></g></svg>