<svg width="16" height="16" viewBox="0 0 4.233 4.233" xmlns="http://www.w3.org/2000/svg"><path d="M-.006 4.241L4.234.006" fill="none"/><path d="M.129 2.117l.304-.293.304-.251.321-.193.257-.129.234-.088.24-.058.187-.018.132-.005.29.017.277.062.272.105.266.134.29.196.268.216.213.205.085.1-.266.271-.345.275-.24.155-.312.158-.249.088-.251.055-.15.024-.148.002-.217-.011-.26-.041-.237-.076-.263-.117-.269-.15-.201-.142-.246-.205-.175-.164-.114-.122" fill="#fff" stroke="#000" stroke-width=".001"/><circle cx="2.09" cy="2.09" stroke="#000" stroke-width=".219" stroke-linecap="round" stroke-linejoin="round" paint-order="stroke markers fill" r=".658"/><circle cx="2.504" cy="1.736" fill="#fff" paint-order="stroke markers fill" r=".148"/><g fill="#fff" stroke="#000"><path d="M-.105 2.037S.82 3.279 2.107 3.279M4.31 2.035S3.39 3.28 2.106 3.28" stroke-width=".277"/><path d="M-.104 2.197S.82.946 2.109.946M4.309 2.199S3.389.946 2.108.946" stroke-width=".278"/></g></svg>